Coordinates
version=1
nRows=11
nColumns=36
inDegrees=yes

Units are S.I. units (second, meters, Newtons, ...)
If the header above contains a line with 'inDegrees', this indicates whether rotational values are in degrees (yes) or radians (no).

endheader
time	pelvis_tilt	pelvis_list	pelvis_rotation	pelvis_tx	pelvis_ty	pelvis_tz	hip_flexion_r	hip_adduction_r	hip_rotation_r	knee_angle_r	knee_angle_r_beta	ankle_angle_r	subtalar_angle_r	mtp_angle_r	hip_flexion_l	hip_adduction_l	hip_rotation_l	knee_angle_l	knee_angle_l_beta	ankle_angle_l	subtalar_angle_l	mtp_angle_l	lumbar_extension	lumbar_bending	lumbar_rotation	arm_flex_r	arm_add_r	arm_rot_r	elbow_flex_r	pro_sup_r	arm_flex_l	arm_add_l	arm_rot_l	elbow_flex_l	pro_sup_l
      2.63333330	     -9.55771665	      1.70041783	     -2.03114316	     -0.20667633	      1.35633712	     -0.04904075	     29.50357649	     -3.01423414	    -11.44823401	      8.28036975	      0.14451972	    -37.36153316	     -8.90657954	     -7.49999987	     33.85083138	     -0.75881105	     -5.79811143	     16.28651682	      0.28425334	    -38.56387455	     -7.32261236	     -7.49999987	    -22.59602232	     -1.14910487	      8.30256737	    -64.18353092	    -49.69982238	    -17.03443216	     93.31315087	     90.39863193	    -63.17708756	    -46.87228929	     -9.68419909	     77.02331258	     85.02641871
      2.65000000	     -8.99239945	      1.42246161	     -2.24884705	     -0.18011729	      1.31919892	     -0.06488230	     29.84793983	     -3.53073607	    -12.17019400	      7.74544003	      0.13518343	    -36.79440359	     -8.47786304	     -7.49999987	     33.42060421	     -0.93674198	     -5.18705868	     13.38499975	      0.23361232	    -36.13215761	     -7.76977999	     -7.49999987	    -21.87879034	     -0.09516974	      8.78823129	    -75.46236030	    -45.40018054	    -21.58357203	     91.60922102	     90.36251767	    -66.08711935	    -37.85232028	    -12.42146959	     74.27475337	     84.90509670
      2.66666670	     -8.63844175	      1.39866435	     -1.93002715	     -0.15853745	      1.28580338	     -0.05737239	     29.95659966	     -4.00270641	    -12.96384760	      5.38385123	      0.09396593	    -37.73982772	     -8.40323719	     -7.49999987	     33.01196339	     -1.48264201	     -4.92134557	      9.91725345	      0.17308873	    -36.82360291	     -6.28933705	     -7.49999987	    -21.16285556	     -0.04051633	      8.79450939	    -79.12273173	    -39.36974564	    -20.40325686	     85.74014298	     90.60822639	    -67.70582011	    -32.69707596	    -10.30344308	     69.42890724	     84.89937682
      2.68333330	     -7.88978942	      0.82657646	     -2.26723259	     -0.13202737	      1.25279323	     -0.04483381	     29.71706870	     -3.26675373	    -12.46267236	      4.27153331	      0.07455232	    -37.47826204	     -6.99959507	     -7.49999987	     31.96485946	     -2.80271455	     -6.13350589	      7.02081842	      0.12253640	    -36.89459410	     -3.61846274	     -7.49999987	    -21.24688618	      0.04034530	      9.46326726	    -81.31373008	    -32.34952401	    -21.88191351	     81.87776275	     90.75110029	    -65.70745181	    -31.04660347	     -6.57886912	     64.10302208	     82.72566540
      2.70000000	     -6.54188400	      0.45126844	     -2.50297812	     -0.09705136	      1.21348583	     -0.06299726	     28.95442108	     -3.51553634	    -11.32056075	      4.73384362	      0.08262116	    -38.09863856	     -8.45899434	     -7.49999987	     30.46983527	     -3.32940205	     -5.37592555	      6.25909501	      0.10924182	    -35.90882492	     -4.51941040	     -7.49999987	    -21.42539940	      0.73010065	      7.36790816	    -82.58798846	    -31.47920544	    -21.68159373	     77.70352080	     90.27974422	    -65.41645147	    -26.58484083	     -4.92197768	     62.42289283	     82.18678761
      2.71666670	     -5.59629901	      0.03311452	     -3.25031739	     -0.06797320	      1.18165367	     -0.05645694	     28.81563245	     -3.21546988	    -10.43599628	      6.17269883	      0.10773392	    -37.79808893	     -9.08791313	     -7.49999987	     29.39807087	     -4.41260343	     -5.71301447	      6.91495960	      0.12068881	    -33.61615742	     -2.03971815	     -7.49999987	    -21.04071628	      0.94289615	      6.55117531	    -81.03831692	    -31.83819516	    -19.12276562	     73.57748697	     88.79132154	    -62.09348331	    -24.34934981	     -2.52807013	     57.36365753	     80.77990852
      2.73333330	     -4.92320161	     -0.18178021	     -3.35677197	     -0.05170724	      1.15051812	     -0.05223566	     28.64959492	     -3.13026636	    -10.18507358	      6.90932233	      0.12059042	    -38.65659683	     -8.42472822	     -7.49999987	     29.16225341	     -4.99848814	     -6.05973588	      8.04671749	      0.14044171	    -33.82042055	     -3.29970608	     -7.49999987	    -21.69196791	      1.38016522	      5.75085374	    -76.53882613	    -32.24090289	    -16.89634325	     69.77458802	     86.22027216	    -55.93982945	    -24.90686105	      3.07855700	     53.73301146	     79.17028817
      2.75000000	     -3.79281105	     -0.17082952	     -2.95954901	     -0.01692194	      1.09907974	     -0.05073334	     28.79943681	     -3.46648712	     -9.45987259	      9.61806246	      0.16786686	    -37.69272916	    -10.34577390	     -7.49999987	     29.10892235	     -5.62111446	     -6.66650601	     11.16488282	      0.19486397	    -34.12352093	     -4.28493747	     -7.49999987	    -21.27999335	      1.74916364	      5.37043359	    -73.88730205	    -31.01154791	    -15.31708628	     67.14900916	     85.52222516	    -50.97900830	    -26.26257678	     10.82131793	     50.01290077	     79.51315271
      2.76666670	     -3.16776214	     -0.31109213	     -3.05689745	      0.01281531	      1.05716482	     -0.05314198	     28.75263992	     -3.09561124	     -8.25610797	     11.69078648	      0.20404272	    -35.65475251	     -9.40616973	     -7.49999987	     29.57578815	     -6.02171024	     -5.45562489	     15.43428847	      0.26937915	    -33.52308344	     -6.76308349	     -7.49999987	    -20.56228580	      1.33632824	      6.02179365	    -69.00387814	    -30.23871359	    -12.03401918	     60.65939399	     85.25067124	    -44.03971301	    -26.67648246	     17.93349887	     43.95617144	     79.90851273
      2.78333330	     -1.99904942	     -1.02743010	     -2.84106398	      0.02619149	      1.02381421	     -0.05077240	     29.88443846	     -2.31311897	     -5.35495905	     17.15575087	      0.29942434	    -29.37096680	     -9.88210104	     -7.49999987	     30.84121535	     -7.09708858	     -5.62973252	     21.59507681	      0.37690519	    -27.69026113	     -6.69173392	     -7.49999987	    -20.96646889	      1.95417647	      5.25119561	    -62.16729275	    -32.20255590	     -5.94427391	     55.65447048	     83.93135036	    -38.01942868	    -26.16190984	     23.66606066	     40.14527000	     79.13730341
      2.80000000	     -0.48620529	     -1.47816285	     -3.13198828	      0.03471897	      0.98953447	     -0.05244048	     31.52905863	     -1.50982581	     -2.07895214	     24.79448390	      0.43274538	    -19.86415075	    -12.63391958	     -7.49999987	     32.71880383	     -7.29770879	     -3.25240028	     30.00268804	      0.52364569	    -17.58135612	     -8.57490118	     -7.49999987	    -22.24018340	      1.50327668	      5.64907867	    -53.63974700	    -32.72151761	     -0.17526369	     47.30977126	     82.88875472	    -27.63280396	    -25.01664193	     35.79611142	     31.17298976	     76.21037689
